<svg width="20" height="21" viewBox="0 0 20 21" fill="none" xmlns="http://www.w3.org/2000/svg">
<path d="M10.0045 5.29466C7.16517 5.29466 4.87499 7.58484 4.87499 10.4241C4.87499 13.2634 7.16517 15.5536 10.0045 15.5536C12.8437 15.5536 15.1339 13.2634 15.1339 10.4241C15.1339 7.58484 12.8437 5.29466 10.0045 5.29466ZM10.0045 13.7589C8.16963 13.7589 6.66963 12.2634 6.66963 10.4241C6.66963 8.58484 8.16517 7.0893 10.0045 7.0893C11.8437 7.0893 13.3393 8.58484 13.3393 10.4241C13.3393 12.2634 11.8393 13.7589 10.0045 13.7589ZM16.5402 5.08484C16.5402 5.75002 16.0044 6.28127 15.3437 6.28127C14.6786 6.28127 14.1473 5.74555 14.1473 5.08484C14.1473 4.42412 14.683 3.88841 15.3437 3.88841C16.0044 3.88841 16.5402 4.42412 16.5402 5.08484ZM19.9375 6.29912C19.8616 4.69645 19.4955 3.2768 18.3214 2.10716C17.1518 0.937517 15.7321 0.571446 14.1294 0.491089C12.4777 0.397339 7.52677 0.397339 5.87499 0.491089C4.27678 0.566982 2.85713 0.933053 1.68303 2.1027C0.50892 3.27234 0.147313 4.69198 0.0669555 6.29466C-0.0267944 7.94645 -0.0267944 12.8973 0.0669555 14.5491C0.142848 16.1518 0.50892 17.5714 1.68303 18.7411C2.85713 19.9107 4.27231 20.2768 5.87499 20.3572C7.52677 20.4509 12.4777 20.4509 14.1294 20.3572C15.7321 20.2813 17.1518 19.9152 18.3214 18.7411C19.4911 17.5714 19.8571 16.1518 19.9375 14.5491C20.0312 12.8973 20.0312 7.95091 19.9375 6.29912ZM17.8036 16.3214C17.4553 17.1964 16.7812 17.8706 15.9018 18.2232C14.5848 18.7456 11.4598 18.625 10.0045 18.625C8.54909 18.625 5.41963 18.7411 4.10713 18.2232C3.23213 17.875 2.55803 17.2009 2.20535 16.3214C1.68303 15.0045 1.80356 11.8795 1.80356 10.4241C1.80356 8.96877 1.68749 5.8393 2.20535 4.5268C2.55356 3.6518 3.22767 2.9777 4.10713 2.62502C5.4241 2.1027 8.54909 2.22323 10.0045 2.22323C11.4598 2.22323 14.5893 2.10716 15.9018 2.62502C16.7768 2.97323 17.4509 3.64734 17.8036 4.5268C18.3259 5.84377 18.2053 8.96877 18.2053 10.4241C18.2053 11.8795 18.3259 15.0089 17.8036 16.3214Z" fill="white"/>
</svg>
